# xmcd
#
# Track frame offsets:
#	150
#	11046
#	24979
#	42756
#	56429
#	77699
#	91873
#	101700
#	113335
#	122494
#	137119
#	146993
#	159228
#	171357
#	186844
#	203069
#	216254
#	231943
#	248570
#	267227
#	278296
#	295080
#
# Disc length: 4115 seconds
#
# Revision: 0
# Processed by: cddbd v1.5PL3 Copyright (c) Steve Scherf et al.
# Submitted via: audiograbber 1.82.01
#
DISCID=28101116
DTITLE=Nana Mouskouri - MTV hystori 2002
DYEAR=2002
DGENRE=
TTITLE0=O kir Antonis
TTITLE1=Ta pedia tou pirea
TTITLE2=Kourasmeno pallikari
TTITLE3=Imittos
TTITLE4=Athina
TTITLE5=Odos oniron
TTITLE6=To pelagos ine vathi
TTITLE7=Mimise mou
TTITLE8=San Sfirixi tris fores
TTITLE9=Pame mia volta sto feggari
TTITLE10=An tha dipsasis gia nero
TTITLE11=Itan tou mai
TTITLE12=Tora pou pas sti xenitia
TTITLE13=O Mithos
TTITLE14=Thalassopoulia mou
TTITLE15=Garifalo st'sfti
TTITLE16=Ximeroni
TTITLE17=Ime andras
TTITLE18=Oniro pedion tis gitonias
TTITLE19=To feggari ine kokkino
TTITLE20=Ime aetos horis ftera
TTITLE21=Ilissos
EXTD=
EXTT0=
EXTT1=
EXTT2=
EXTT3=
EXTT4=
EXTT5=
EXTT6=
EXTT7=
EXTT8=
EXTT9=
EXTT10=
EXTT11=
EXTT12=
EXTT13=
EXTT14=
EXTT15=
EXTT16=
EXTT17=
EXTT18=
EXTT19=
EXTT20=
EXTT21=
PLAYORDER=
